<svg xmlns="http://www.w3.org/2000/svg" viewBox="0 0 512 512" role="img" aria-label="Taipei Zoo Animal Guide">
  <rect width="512" height="512" rx="96" fill="#166534"/>
  <path d="M128 330c32-70 82-120 151-149 42-18 76-16 101 4 25 20 32 51 18 94-19 58-62 96-130 113-58 14-105-7-140-62Z" fill="#f7f3e8"/>
  <path d="M229 186c-8-35 7-60 46-75 43 17 57 45 42 84-29-13-58-16-88-9Z" fill="#9f6b35"/>
  <circle cx="327" cy="236" r="15" fill="#1f2933"/>
  <path d="M144 340c26 33 62 51 108 52-28 24-62 34-103 29-23-26-25-53-5-81Z" fill="#e1b866"/>
</svg>
